<?xml version="1.0" encoding="iso-8859-1"?>
<!-- Generator: Adobe Illustrator 19.0.0, SVG Export Plug-In . SVG Version: 6.00 Build 0)  -->
<svg version="1.1" id="Layer_1" xmlns="http://www.w3.org/2000/svg" xmlns:xlink="http://www.w3.org/1999/xlink" x="0px" y="0px"
	 viewBox="0 0 390.222 390.222" style="enable-background:new 0 0 390.222 390.222;" xml:space="preserve">
<path style="fill:#FFFFFF;" d="M305.139,192.921h44.994v-55.273c0-5.947-4.848-10.861-10.861-10.861H32.525
	c-5.947,0-10.861,4.848-10.861,10.861v220.057c0,5.947,4.848,10.861,10.861,10.861h306.747c5.947,0,10.861-4.848,10.861-10.861
	v-55.273h-44.994c-30.319,0-54.756-24.372-54.756-54.756S274.756,192.921,305.139,192.921z"/>
<path style="fill:#FFC10D;" d="M328.412,192.986h-23.273c-30.384,0-54.756,24.372-54.756,54.756s24.372,54.756,54.756,54.756h23.273
	v44.477H43.321V227.119h19.523c5.947,0,10.861-4.848,10.861-10.861c0-5.947-4.913-10.861-10.861-10.861H43.386v-21.657h52.04
	c5.947,0,10.861-4.848,10.861-10.861c0-5.947-4.848-10.861-10.861-10.861h-52.04v-13.576h285.091v44.541H328.412z"/>
<g>
	<path style="fill:#56ACE0;" d="M271.976,247.677c0,18.424,14.61,33.034,33.034,33.034h63.418v-66.069h-62.836
		C287.168,214.642,271.976,229.253,271.976,247.677z"/>
	<polygon style="fill:#56ACE0;" points="271.523,105.131 191.879,26.004 111.653,105.131 	"/>
</g>
<g>
	<path style="fill:#194F82;" d="M379.354,192.921h-7.564v-55.273c0-17.907-14.61-32.517-32.517-32.517h-36.848L199.442,3.248
		c-4.331-4.331-10.861-4.331-15.192,0L81.269,105.131H32.525c-17.907,0-32.517,14.61-32.517,32.517v220.057
		c0,17.907,14.61,32.517,32.517,32.517h306.747c17.907,0,32.517-14.61,32.517-32.517v-55.273h7.564
		c5.947,0,10.861-4.848,10.861-10.861v-87.79C390.214,197.834,385.366,192.921,379.354,192.921z M305.139,302.432h44.994v55.273
		c0,5.947-4.848,10.861-10.861,10.861H32.525c-5.947,0-10.861-4.848-10.861-10.861V137.648c0-5.947,4.848-10.861,10.861-10.861
		h306.747c5.947,0,10.861,4.848,10.861,10.861v55.273h-44.994c-30.319,0-54.756,24.372-54.756,54.756
		C250.384,278.061,274.756,302.432,305.139,302.432z M271.523,105.131H111.653l80.226-79.127L271.523,105.131z M368.558,280.776
		h-7.564h-55.855c-18.424,0-33.034-14.61-33.034-33.034s14.61-33.034,33.034-33.034h55.855h7.564V280.776z"/>
	<path style="fill:#194F82;" d="M286.715,247.677c0,5.947,4.848,10.861,10.861,10.861h14.093c5.947,0,10.861-4.848,10.861-10.861
		c0-5.947-4.848-10.861-10.861-10.861h-14.093C291.564,236.881,286.715,241.729,286.715,247.677z"/>
	<path style="fill:#194F82;" d="M118.182,311.612H73.77c-5.947,0-10.861,4.848-10.861,10.861c0,5.947,4.848,10.861,10.861,10.861
		h44.412c5.947,0,10.861-4.848,10.861-10.861C128.978,316.525,124.129,311.612,118.182,311.612z"/>
</g>
<g>
</g>
<g>
</g>
<g>
</g>
<g>
</g>
<g>
</g>
<g>
</g>
<g>
</g>
<g>
</g>
<g>
</g>
<g>
</g>
<g>
</g>
<g>
</g>
<g>
</g>
<g>
</g>
<g>
</g>
</svg>
